<?xml version="1.0" encoding="utf-8"?>
<!-- Generator: Adobe Illustrator 16.0.0, SVG Export Plug-In . SVG Version: 6.00 Build 0)  -->
<!DOCTYPE svg PUBLIC "-//W3C//DTD SVG 1.1//EN" "http://www.w3.org/Graphics/SVG/1.1/DTD/svg11.dtd">
<svg version="1.1" xmlns="http://www.w3.org/2000/svg" xmlns:xlink="http://www.w3.org/1999/xlink" x="0px" y="0px"
	 width="779.199px" height="162px" viewBox="0 0 779.199 162" enable-background="new 0 0 779.199 162" xml:space="preserve">
<g id="Layer_1">
	<text transform="matrix(1 0 0 1 160.1133 119.3887)" font-family="'Impact'" font-size="97.3119">MART SAARMAN</text>
</g>
<g id="Layer_2">
	<path d="M101.428,11.789H36.883C16.598,11.789,0,28.387,0,48.671v64.547C0,133.504,16.598,150.1,36.883,150.1h64.544
		c20.286,0,36.883-16.596,36.883-36.882V48.671C138.311,28.387,121.713,11.789,101.428,11.789z M121.734,118.658
		c-2.986,5.293-7.447,9.547-13.259,12.643c-9.069,4.83-21.275,6.984-39.578,6.984c-16.515,0-29-2.254-38.169-6.892
		c-12.582-6.363-19.232-17.329-19.232-31.712l0.001-0.059l0.117-18.738c0.033-5.263,4.31-9.507,9.565-9.507c0.021,0,0.04,0,0.061,0
		c5.283,0.032,9.54,4.343,9.506,9.627L30.628,99.71c0.007,7.146,2.62,11.519,8.735,14.609c6.34,3.207,16.276,4.833,29.534,4.833
		c14.593,0,24.596-1.551,30.583-4.738c3.959-2.109,7.622-5.353,7.622-14.732c0-15.072-8.315-18.453-32.078-24.27
		c-16.725-4.092-35.68-8.731-50.199-23.607c-3.954-4.05-7.515-8.28-11.233-13.274c2.764-6.146,8.044-10.92,13.902-13.38
		c3.769,5.216,7.193,9.366,11.023,13.291C49.21,49.397,64.646,53.176,79.572,56.828c11.325,2.771,22.021,5.39,30.606,11.057
		c10.654,7.033,16.057,17.731,16.057,31.797C126.235,106.98,124.721,113.363,121.734,118.658z"/>
</g>
<g id="Layer_3">
</g>
</svg>
